<svg xmlns="http://www.w3.org/2000/svg" xmlns:xlink="http://www.w3.org/1999/xlink" version="1.1" width="1000" height="1000" viewBox="0 0 1000 1000" xml:space="preserve">
<desc>Created with Fabric.js 3.5.0</desc>
<defs>
</defs>
<rect x="0" y="0" width="100%" height="100%" fill="#ffffff"/>
<g transform="matrix(22.8325 -16.9043 16.9043 22.8325 418.2511 425.8556)" id="942857">
<g style="" vector-effect="non-scaling-stroke">
		<g transform="matrix(1 0 0 1 0.018 0.0234)">
<path style="stroke: none; stroke-width: 1; stroke-dasharray: none; stroke-linecap: butt; stroke-dashoffset: 0; stroke-linejoin: miter; stroke-miterlimit: 4; is-custom-font: none; font-file-url: none; fill: rgb(242,245,248); fill-rule: nonzero; opacity: 1;" transform=" translate(-16.018, -16.0233)" d="M 25 30 a 5.82 5.82 0 0 1 -1.09 -0.17 l -0.2 -0.07 l -7.36 -3.48 a 0.72 0.72 0 0 0 -0.35 -0.08 a 0.78 0.78 0 0 0 -0.33 0.07 L 8.24 29.54 a 0.66 0.66 0 0 1 -0.2 0.06 a 5.17 5.17 0 0 1 -1 0.15 a 3.6 3.6 0 0 1 -3.29 -5 L 12.68 4.2 a 3.59 3.59 0 0 1 6.58 0 l 9 20.74 A 3.6 3.6 0 0 1 25 30 Z" stroke-linecap="round"/>
</g>
		<g transform="matrix(1 0 0 1 0.0202 0)">
<path style="stroke: none; stroke-width: 1; stroke-dasharray: none; stroke-linecap: butt; stroke-dashoffset: 0; stroke-linejoin: miter; stroke-miterlimit: 4; is-custom-font: none; font-file-url: none; fill: rgb(17,25,32); fill-rule: nonzero; opacity: 1;" transform=" translate(-16.0202, -16)" d="M 16 3 A 2.59 2.59 0 0 1 18.34 4.6 l 9 20.74 A 2.59 2.59 0 0 1 25 29 a 5.42 5.42 0 0 1 -0.86 -0.15 l -7.37 -3.48 a 1.84 1.84 0 0 0 -0.77 -0.17 a 1.69 1.69 0 0 0 -0.73 0.16 l -7.4 3.31 a 5.89 5.89 0 0 1 -0.79 0.12 a 2.59 2.59 0 0 1 -2.37 -3.62 L 13.6 4.6 A 2.58 2.58 0 0 1 16 3 m 0 -2 h 0 A 4.58 4.58 0 0 0 11.76 3.8 L 2.84 24.33 A 4.58 4.58 0 0 0 7 30.75 a 6.08 6.08 0 0 0 1.21 -0.17 a 1.87 1.87 0 0 0 0.4 -0.13 L 16 27.18 l 7.29 3.44 a 1.64 1.64 0 0 0 0.39 0.14 A 6.37 6.37 0 0 0 25 31 a 4.59 4.59 0 0 0 4.21 -6.41 l -9 -20.75 A 4.62 4.62 0 0 0 16 1 Z" stroke-linecap="round"/>
</g>
</g>
</g>
</svg>